<?xml version="1.0" standalone="no"?>
<!DOCTYPE svg PUBLIC "-//W3C//DTD SVG 20010904//EN"
 "http://www.w3.org/TR/2001/REC-SVG-20010904/DTD/svg10.dtd">
<svg version="1.0" xmlns="http://www.w3.org/2000/svg"
 width="100.000000pt" height="100.000000pt" viewBox="0 0 100.000000 100.000000"
 preserveAspectRatio="xMidYMid meet">
<metadata>
Created by potrace 1.14, written by Peter Selinger 2001-2017
</metadata>
<g transform="translate(0.000000,100.000000) scale(0.100000,-0.100000)"
fill="#000000" stroke="none">
<path d="M475 805 c-52 -26 -111 -78 -121 -107 -4 -14 -9 -16 -19 -8 -17 14
-85 19 -115 8 -37 -14 -78 -57 -85 -90 -5 -19 -20 -37 -45 -53 -127 -80 -113
-275 25 -336 36 -16 77 -18 394 -18 324 0 357 1 390 18 113 58 134 198 44 286
-20 19 -50 39 -67 43 -27 7 -32 14 -37 54 -12 84 -68 161 -144 200 -60 31
-158 32 -220 3z"/>
</g>
</svg>
