<svg width="1000" height="138" viewBox="0 0 1000 138" fill="none" xmlns="http://www.w3.org/2000/svg">
<g clip-path="url(#clip0_1_4)">
<g clip-path="url(#clip1_1_4)">
<g clip-path="url(#clip2_1_4)">
<path d="M242.179 18.8378C242.179 13.3569 240.158 8.91383 237.664 8.91383C235.17 8.91383 233.148 13.3569 233.148 18.8378V119.162C233.148 124.643 235.17 129.086 237.664 129.086C240.158 129.086 242.179 124.643 242.179 119.162V18.8378Z" fill="#080808"/>
<g clip-path="url(#clip3_1_4)">
<g clip-path="url(#clip4_1_4)">
<g clip-path="url(#clip5_1_4)">
<g clip-path="url(#clip6_1_4)">
<path d="M337.46 101.169V113.058C331.679 116.974 323.753 118.932 313.683 118.932C299.51 118.932 287.994 114.568 279.136 105.841C270.278 97.1316 265.849 85.271 265.849 70.2588C265.849 56.0858 270.353 44.5422 279.36 35.6281C288.349 26.7327 299.65 22.285 313.263 22.285C323.054 22.285 331.026 23.9634 337.18 27.3201V38.9289C333.077 36.7843 329.394 35.2458 326.131 34.3134C322.867 33.381 318.578 32.9147 313.263 32.9147C303.1 32.9147 294.642 36.3648 287.892 43.2648C281.122 50.1648 277.737 59.1628 277.737 70.2588C277.737 81.821 281.094 91.0521 287.808 97.9521C294.521 104.852 303.426 108.302 314.522 108.302C323.473 108.302 331.119 105.924 337.46 101.169ZM365.153 18.9282V117.813H354.104V18.9282H365.153ZM448.513 82.5669C448.513 93.1035 445.529 101.822 439.562 108.722C433.594 115.622 425.389 119.072 414.945 119.072C404.782 119.072 396.735 115.64 390.805 108.778C384.893 101.934 381.937 93.29 381.937 82.8467C381.937 72.3101 384.986 63.5173 391.084 56.4681C397.201 49.4375 405.155 45.9222 414.945 45.9222C425.668 45.9222 433.939 49.3722 439.757 56.2723C445.595 63.1723 448.513 71.9372 448.513 82.5669ZM393.406 82.7068C393.406 90.0731 395.364 96.339 399.28 101.505C403.197 106.689 408.418 109.281 414.945 109.281C422.032 109.281 427.487 106.736 431.31 101.645C435.133 96.5721 437.044 90.2595 437.044 82.7068C437.044 74.8744 435.226 68.4126 431.589 63.3215C427.953 58.249 422.405 55.7128 414.945 55.7128C408.232 55.7128 402.964 58.3236 399.141 63.5453C395.318 68.7669 393.406 75.1541 393.406 82.7068ZM519.816 46.9013V117.813H508.767V105.505C505.037 114.27 497.624 118.652 486.528 118.652C479.535 118.652 474.015 116.573 469.968 112.414C465.903 108.274 463.87 102.708 463.87 95.7143V46.9013H474.92V92.917C474.92 98.0454 476.225 101.962 478.836 104.666C481.447 107.37 484.99 108.722 489.466 108.722C495.34 108.722 500.03 106.67 503.536 102.568C507.023 98.465 508.767 92.917 508.767 85.9237V46.9013H519.816ZM547.51 83.1264C547.51 90.7724 549.375 96.9731 553.104 101.728C556.834 106.484 561.543 108.862 567.231 108.862C573.012 108.862 577.935 106.717 582.001 102.428C586.047 98.1386 588.071 91.2852 588.071 81.8676C588.071 72.9162 585.973 66.3426 581.777 62.1466C577.581 57.9506 572.965 55.8527 567.93 55.8527C562.056 55.8527 557.188 58.2024 553.328 62.9019C549.449 67.62 547.51 74.3615 547.51 83.1264ZM599.12 18.9282V117.813H588.071V107.323C583.036 115.062 575.763 118.932 566.252 118.932C556.834 118.932 549.449 115.435 544.097 108.442C538.726 101.449 536.041 92.9636 536.041 82.9865C536.041 71.8906 538.885 62.9112 544.573 56.0485C550.26 49.2044 557.58 45.7824 566.531 45.7824C575.763 45.7824 582.942 49.7452 588.071 57.6709V18.9282H599.12ZM727.628 109.981L727.768 110.4C720.216 116.088 710.472 118.932 698.536 118.932C683.99 118.932 672.288 114.615 663.43 105.98C654.572 97.3647 650.143 85.5507 650.143 70.5385C650.143 56.2723 654.553 44.5888 663.374 35.4883C672.176 26.4063 683.3 21.8654 696.746 21.8654C707.823 21.8654 716.999 24.01 724.272 28.2992V40.4675C716.644 35.4323 707.786 32.9147 697.697 32.9147C687.161 32.9147 678.582 36.3368 671.962 43.1809C665.342 50.0436 662.032 59.1628 662.032 70.5385C662.032 82.194 665.295 91.3505 671.822 98.0081C678.349 104.684 687.356 108.022 698.844 108.022C705.166 108.022 711.031 106.764 716.439 104.246V74.8743H695.739V64.9439H727.768V109.981H727.628ZM802.456 46.9013V117.813H791.407V105.505C787.677 114.27 780.264 118.652 769.168 118.652C762.175 118.652 756.655 116.573 752.608 112.414C748.543 108.274 746.51 102.708 746.51 95.7143V46.9013H757.56V92.917C757.56 98.0454 758.865 101.962 761.476 104.666C764.087 107.37 767.63 108.722 772.106 108.722C777.98 108.722 782.67 106.67 786.176 102.568C789.663 98.465 791.407 92.917 791.407 85.9237V46.9013H802.456ZM844.556 109.281C849.591 109.281 853.6 107.855 856.584 105.001C859.568 102.167 861.06 98.5582 861.06 94.1758V85.0845H848.752C842.784 85.0845 838.308 86.2501 835.325 88.5812C832.341 90.9122 830.849 93.8494 830.849 97.3927C830.849 100.936 832.015 103.799 834.346 105.98C836.677 108.181 840.08 109.281 844.556 109.281ZM861.2 117.813V109.421C857.563 115.482 850.943 118.512 841.339 118.512C834.719 118.512 829.385 116.554 825.338 112.638C821.273 108.722 819.24 103.78 819.24 97.8123C819.24 91.0055 821.823 85.7093 826.989 81.9236C832.173 78.1565 839.241 76.273 848.192 76.273H861.06V72.6365C861.06 67.0419 859.801 62.818 857.284 59.9647C854.766 57.1301 850.523 55.7128 844.556 55.7128C837.003 55.7128 830.29 57.7175 824.415 61.727V50.6776C829.73 47.4141 836.723 45.7824 845.395 45.7824C863.205 45.7824 872.109 54.827 872.109 72.9162V117.813H861.2ZM902.6 79.0703V117.813H891.551L891.69 46.9013H902.6V59.3493C906.33 50.5844 912.763 46.2019 921.901 46.2019C923.58 46.2019 924.885 46.2952 925.818 46.4817V57.3912C923.859 56.7385 921.855 56.4121 919.803 56.4121C914.861 56.4121 910.759 58.6966 907.495 63.2655C904.232 67.8345 902.6 73.1027 902.6 79.0703ZM944.56 83.1264C944.56 90.7724 946.424 96.9731 950.154 101.728C953.884 106.484 958.593 108.862 964.281 108.862C970.062 108.862 974.976 106.717 979.022 102.428C983.069 98.1386 985.093 91.2852 985.093 81.8676C985.093 72.9162 982.995 66.3426 978.799 62.1466C974.621 57.9506 970.015 55.8527 964.98 55.8527C959.106 55.8527 954.229 58.2024 950.35 62.9019C946.49 67.62 944.56 74.3615 944.56 83.1264ZM996.17 18.9282V117.813H985.093V107.323C980.057 115.062 972.784 118.932 963.274 118.932C953.875 118.932 946.49 115.435 941.119 108.442C935.767 101.449 933.091 92.9636 933.091 82.9865C933.091 71.8906 935.925 62.9112 941.594 56.0485C947.301 49.2044 954.63 45.7824 963.581 45.7824C972.794 45.7824 979.964 49.7452 985.093 57.6709V18.9282H996.17Z" fill="#080808"/>
</g>
</g>
</g>
</g>
<g clip-path="url(#clip7_1_4)">
<g clip-path="url(#clip8_1_4)">
<path d="M48.0826 138.199C23.6324 138.199 3.80219 118.362 3.80219 93.9188C3.81695 74.2288 16.5918 57.7638 34.2597 51.941C34.8723 35.262 48.5549 21.9557 65.3741 21.941C70.7542 21.941 75.8169 23.3358 80.2081 25.7565C89.5586 10.2288 106.555 -0.199226 126.024 -0.199226C155.153 -0.184466 178.835 23.0775 179.514 52.0369C196.939 57.9779 209.492 74.428 209.507 93.8598C209.507 118.303 189.669 138.14 165.226 138.14H48.0826V138.199ZM170.607 64.9446C166.828 64.2362 164.23 60.7971 164.599 56.9889C164.754 55.7196 164.791 54.5092 164.791 53.3137C164.739 31.9262 147.426 14.6126 126.038 14.5831C109.441 14.5683 95.3224 25.048 89.7948 39.7491C88.8944 42.1255 86.8058 43.9041 84.2745 44.3912C81.7652 44.8782 79.1601 44.0074 77.4331 42.1107C74.363 38.7675 70.1638 36.7233 65.3815 36.7233C56.3409 36.738 49.0273 44.0443 48.9977 53.0849C48.9977 54.0959 49.1232 55.1292 49.3298 56.2214C49.6915 58.1919 49.2708 60.2066 48.1269 61.845C46.983 63.4982 45.2265 64.583 43.2782 64.9004C29.2634 67.2029 18.5402 79.2915 18.5549 93.904C18.5845 110.207 31.78 123.395 48.0826 123.439H165.241C181.544 123.395 194.717 110.207 194.747 93.904C194.761 79.4612 184.326 67.476 170.607 64.9446Z" fill="#090909"/>
</g>
</g>
</g>
</g>
</g>
<defs>
<clipPath id="clip0_1_4">
<rect width="1000" height="138" fill="white"/>
</clipPath>
<clipPath id="clip1_1_4">
<rect width="992.396" height="138.398" fill="white" transform="translate(3.80219 -0.199226)"/>
</clipPath>
<clipPath id="clip2_1_4">
<rect width="992.396" height="138.398" fill="white" transform="translate(3.80219 -0.199226)"/>
</clipPath>
<clipPath id="clip3_1_4">
<rect width="730.377" height="100.144" fill="white" transform="translate(265.821 18.9282)"/>
</clipPath>
<clipPath id="clip4_1_4">
<rect width="730.377" height="100.144" fill="white" transform="translate(265.821 18.9282)"/>
</clipPath>
<clipPath id="clip5_1_4">
<rect width="730.377" height="100.144" fill="white" transform="translate(265.821 18.9282)"/>
</clipPath>
<clipPath id="clip6_1_4">
<rect width="730.377" height="100.144" fill="white" transform="translate(265.821 18.9282)"/>
</clipPath>
<clipPath id="clip7_1_4">
<rect width="205.705" height="138.398" fill="white" transform="translate(3.80219 -0.199226)"/>
</clipPath>
<clipPath id="clip8_1_4">
<rect width="205.705" height="138.398" fill="white" transform="translate(3.80219 -0.199226)"/>
</clipPath>
</defs>
</svg>
