<svg xmlns="http://www.w3.org/2000/svg" version="1.1" xmlns:xlink="http://www.w3.org/1999/xlink" xmlns:svgjs="http://svgjs.dev/svgjs" width="1000" height="138" viewBox="0 0 1000 138"><g transform="matrix(1,0,0,1,-0.6060606060606233,0.1992248855930825)"><svg viewBox="0 0 396 55" data-background-color="#303030" preserveAspectRatio="xMidYMid meet" height="138" width="1000" xmlns="http://www.w3.org/2000/svg" xmlns:xlink="http://www.w3.org/1999/xlink"><g id="tight-bounds" transform="matrix(1,0,0,1,0.2400000000000091,-0.07940122251898174)"><svg viewBox="0 0 395.52 55.15880244503796" height="55.15880244503796" width="395.52"><g><svg viewBox="0 0 537.4106483658517 74.94672275756416" height="55.15880244503796" width="395.52"><g><rect width="4.890573663744589" height="65.0767491382612" x="124.19752584413693" y="4.934986809651477" fill="#ffffff" opacity="1" stroke-width="0" stroke="transparent" fill-opacity="1" class="rect-qz-0" data-fill-palette-color="primary" rx="1%" id="qz-0" data-palette-color="#ffffff"></rect></g><g transform="matrix(1,0,0,1,141.89064836585163,10.35804923783991)"><svg viewBox="0 0 395.52 54.23062428188434" height="54.23062428188434" width="395.52"><g id="textblocktransform"><svg viewBox="0 0 395.52 54.23062428188434" height="54.23062428188434" width="395.52" id="textblock"><g><svg viewBox="0 0 395.52 54.23062428188434" height="54.23062428188434" width="395.52"><g transform="matrix(1,0,0,1,0,0)"><svg width="395.52" viewBox="2.4 -35.35 261.08000000000004 35.800000000000004" height="54.23062428188434" data-palette-color="#ffffff"><path d="M28-5.95L28-1.7Q24.9 0.4 19.5 0.4L19.5 0.4Q11.9 0.4 7.15-4.28 2.4-8.95 2.4-17L2.4-17Q2.4-24.6 7.23-29.38 12.05-34.15 19.35-34.15L19.35-34.15Q24.6-34.15 27.9-32.35L27.9-32.35 27.9-28.2Q25.7-29.35 23.95-29.85 22.2-30.35 19.35-30.35L19.35-30.35Q13.9-30.35 10.28-26.65 6.65-22.95 6.65-17L6.65-17Q6.65-10.8 10.25-7.1 13.85-3.4 19.8-3.4L19.8-3.4Q24.6-3.4 28-5.95L28-5.95ZM37.9-35.35L37.9 0 33.95 0 33.95-35.35 37.9-35.35ZM67.7-12.6L67.7-12.6Q67.7-6.95 64.5-3.25 61.3 0.45 55.7 0.45L55.7 0.45Q50.25 0.45 47.07-3.23 43.9-6.9 43.9-12.5L43.9-12.5Q43.9-18.15 47.17-21.93 50.45-25.7 55.7-25.7L55.7-25.7Q61.45-25.7 64.57-22 67.7-18.3 67.7-12.6ZM48-12.55L48-12.55Q48-8.6 50.1-5.83 52.2-3.05 55.7-3.05L55.7-3.05Q59.5-3.05 61.55-5.78 63.6-8.5 63.6-12.55L63.6-12.55Q63.6-16.75 61.65-19.48 59.7-22.2 55.7-22.2L55.7-22.2Q52.1-22.2 50.05-19.4 48-16.6 48-12.55ZM93.19-25.35L93.19 0 89.24 0 89.24-4.4Q87.24 0.3 81.29 0.3L81.29 0.3Q77.54 0.3 75.37-1.93 73.19-4.15 73.19-7.9L73.19-7.9 73.19-25.35 77.14-25.35 77.14-8.9Q77.14-6.15 78.54-4.7 79.94-3.25 82.34-3.25L82.34-3.25Q85.49-3.25 87.37-5.45 89.24-7.65 89.24-11.4L89.24-11.4 89.24-25.35 93.19-25.35ZM103.09-12.4L103.09-12.4Q103.09-8.3 105.09-5.75 107.09-3.2 110.14-3.2L110.14-3.2Q113.24-3.2 115.42-5.5 117.59-7.8 117.59-12.85L117.59-12.85Q117.59-17.65 115.34-19.9 113.09-22.15 110.39-22.15L110.39-22.15Q107.24-22.15 105.17-19.63 103.09-17.1 103.09-12.4ZM121.54-35.35L121.54 0 117.59 0 117.59-3.75Q114.89 0.4 109.79 0.4L109.79 0.4Q104.74 0.4 101.87-3.35 98.99-7.1 98.99-12.45L98.99-12.45Q98.99-18.4 102.04-22.08 105.09-25.75 109.89-25.75L109.89-25.75Q114.84-25.75 117.59-21.5L117.59-21.5 117.59-35.35 121.54-35.35ZM167.48-2.8L167.53-2.65Q163.48 0.4 157.08 0.4L157.08 0.4Q149.28 0.4 144.53-4.23 139.78-8.85 139.78-16.9L139.78-16.9Q139.78-24.55 144.51-29.43 149.23-34.3 156.44-34.3L156.44-34.3Q162.38-34.3 166.28-32L166.28-32 166.28-27.65Q162.19-30.35 156.78-30.35L156.78-30.35Q151.13-30.35 147.58-26.68 144.03-23 144.03-16.9L144.03-16.9Q144.03-10.65 147.53-7.08 151.03-3.5 157.19-3.5L157.19-3.5Q160.58-3.5 163.48-4.85L163.48-4.85 163.48-15.35 156.08-15.35 156.08-18.9 167.53-18.9 167.53-2.8 167.48-2.8ZM194.23-25.35L194.23 0 190.28 0 190.28-4.4Q188.28 0.3 182.33 0.3L182.33 0.3Q178.58 0.3 176.41-1.93 174.23-4.15 174.23-7.9L174.23-7.9 174.23-25.35 178.18-25.35 178.18-8.9Q178.18-6.15 179.58-4.7 180.98-3.25 183.38-3.25L183.38-3.25Q186.53-3.25 188.41-5.45 190.28-7.65 190.28-11.4L190.28-11.4 190.28-25.35 194.23-25.35ZM209.28-3.05L209.28-3.05Q211.98-3.05 213.58-4.58 215.18-6.1 215.18-8.45L215.18-8.45 215.18-11.7 210.78-11.7Q207.58-11.7 205.98-10.45 204.38-9.2 204.38-7.3 204.38-5.4 205.63-4.23 206.88-3.05 209.28-3.05ZM215.23 0L215.23-3Q213.28 0.25 208.13 0.25L208.13 0.25Q204.58 0.25 202.41-1.85 200.23-3.95 200.23-7.15L200.23-7.15Q200.23-10.8 203-12.83 205.78-14.85 210.58-14.85L210.58-14.85 215.18-14.85 215.18-16.15Q215.18-19.15 213.83-20.68 212.48-22.2 209.28-22.2L209.28-22.2Q205.23-22.2 202.08-20.05L202.08-20.05 202.08-24Q204.93-25.75 209.58-25.75L209.58-25.75Q219.13-25.75 219.13-16.05L219.13-16.05 219.13 0 215.23 0ZM230.03-13.85L230.03 0 226.08 0 226.13-25.35 230.03-25.35 230.03-20.9Q232.03-25.6 236.93-25.6L236.93-25.6Q237.83-25.6 238.33-25.5L238.33-25.5 238.33-21.6Q237.28-21.95 236.18-21.95L236.18-21.95Q233.53-21.95 231.78-19.5 230.03-17.05 230.03-13.85L230.03-13.85ZM245.03-12.4L245.03-12.4Q245.03-8.3 247.03-5.75 249.03-3.2 252.08-3.2L252.08-3.2Q255.18-3.2 257.35-5.5 259.52-7.8 259.52-12.85L259.52-12.85Q259.52-17.65 257.27-19.9 255.03-22.15 252.33-22.15L252.33-22.15Q249.18-22.15 247.1-19.63 245.03-17.1 245.03-12.4ZM263.48-35.35L263.48 0 259.52 0 259.52-3.75Q256.82 0.4 251.72 0.4L251.72 0.4Q246.68 0.4 243.8-3.35 240.93-7.1 240.93-12.45L240.93-12.45Q240.93-18.4 243.97-22.08 247.03-25.75 251.83-25.75L251.83-25.75Q256.77-25.75 259.52-21.5L259.52-21.5 259.52-35.35 263.48-35.35Z" opacity="1" transform="matrix(1,0,0,1,0,0)" fill="#ffffff" class="wordmark-text-0" data-fill-palette-color="primary" id="text-0"></path></svg></g></svg></g></svg></g></svg></g><g><svg viewBox="0 0 111.39497698616681 74.94672275756416" height="74.94672275756416" width="111.39497698616681"><g><svg xmlns="http://www.w3.org/2000/svg" xmlns:xlink="http://www.w3.org/1999/xlink" version="1.1" x="0" y="0" viewBox="2.0630000000000006 6.623999999999999 27.873000000000005 18.753" enable-background="new 0 0 32 32" xml:space="preserve" height="74.94672275756416" width="111.39497698616681" class="icon-icon-0" data-fill-palette-color="accent" id="icon-0"><path d="M8.063 25.377c-3.313 0-6-2.688-6-6l0 0c0.002-2.668 1.733-4.899 4.127-5.688l0 0c0.083-2.26 1.937-4.063 4.216-4.065l0 0c0.729 0 1.415 0.189 2.01 0.517l0 0c1.267-2.104 3.57-3.517 6.208-3.517l0 0c3.947 0.002 7.156 3.154 7.248 7.078l0 0c2.361 0.805 4.062 3.034 4.064 5.667l0 0c0 3.312-2.688 6-6 6l0 0H8.063V25.377zM24.665 15.451c-0.512-0.096-0.864-0.562-0.814-1.078l0 0c0.021-0.172 0.026-0.336 0.026-0.498l0 0c-0.007-2.898-2.353-5.244-5.251-5.248l0 0c-2.249-0.002-4.162 1.418-4.911 3.41l0 0c-0.122 0.322-0.405 0.563-0.748 0.629l0 0c-0.34 0.066-0.693-0.052-0.927-0.309l0 0c-0.416-0.453-0.985-0.73-1.633-0.73l0 0c-1.225 0.002-2.216 0.992-2.22 2.217l0 0c0 0.137 0.017 0.277 0.045 0.425l0 0c0.049 0.267-0.008 0.54-0.163 0.762l0 0c-0.155 0.224-0.393 0.371-0.657 0.414l0 0c-1.899 0.312-3.352 1.95-3.35 3.93l0 0c0.004 2.209 1.792 3.996 4.001 4.002l0 0h15.875c2.209-0.006 3.994-1.793 3.998-4.002l0 0C27.938 17.418 26.524 15.794 24.665 15.451L24.665 15.451" fill="#91ffcc" data-fill-palette-color="accent"></path></svg></g></svg></g></svg></g><defs></defs></svg><rect width="395.52" height="55.15880244503796" fill="none" stroke="none" visibility="hidden"></rect></g></svg></g></svg>